<?xml version="1.0" encoding="UTF-8" standalone="no"?>
<!-- Generator: Adobe Illustrator 12.0.0, SVG Export Plug-In . SVG Version: 6.00 Build 51448)  -->

<svg
   xmlns:dc="http://purl.org/dc/elements/1.1/"
   xmlns:cc="http://creativecommons.org/ns#"
   xmlns:rdf="http://www.w3.org/1999/02/22-rdf-syntax-ns#"
   xmlns:svg="http://www.w3.org/2000/svg"
   xmlns="http://www.w3.org/2000/svg"
   xmlns:sodipodi="http://sodipodi.sourceforge.net/DTD/sodipodi-0.dtd"
   xmlns:inkscape="http://www.inkscape.org/namespaces/inkscape"
   version="1.1"
   id="Layer_1"
   width="900"
   height="125"
   viewBox="0 0 900.00001 125"
   overflow="visible"
   enable-background="new 0 0 474.072 64.466"
   xml:space="preserve"
   inkscape:version="0.91 r13725"
   sodipodi:docname="nswc-logo-long.svg"
   style="overflow:visible"
   inkscape:export-filename="/home/eric/projects/venv/ccr2016/docs/img/nswc-logo-long.svg.png"
   inkscape:export-xdpi="90.19989"
   inkscape:export-ydpi="90.19989"><metadata
     id="metadata3910"><rdf:RDF><cc:Work
         rdf:about=""><dc:format>image/svg+xml</dc:format><dc:type
           rdf:resource="http://purl.org/dc/dcmitype/StillImage" /><dc:title></dc:title></cc:Work></rdf:RDF></metadata><defs
     id="defs3908" /><sodipodi:namedview
     pagecolor="#ffffff"
     bordercolor="#666666"
     borderopacity="1"
     objecttolerance="10"
     gridtolerance="10"
     guidetolerance="10"
     inkscape:pageopacity="0"
     inkscape:pageshadow="2"
     inkscape:window-width="1600"
     inkscape:window-height="847"
     id="namedview3906"
     showgrid="false"
     inkscape:zoom="1"
     inkscape:cx="427.56618"
     inkscape:cy="20.510872"
     inkscape:window-x="0"
     inkscape:window-y="0"
     inkscape:window-maximized="1"
     inkscape:current-layer="Layer_1"
     fit-margin-top="0"
     fit-margin-left="0"
     fit-margin-right="0"
     fit-margin-bottom="0"
     showborder="true" /><text
     font-size="19"
     letter-spacing="1"
     id="text3754"
     x="11.227239"
     y="128.72939"
     style="font-size:40.70881653px;font-family:Rockwell-ExtraBold;letter-spacing:2.14256954;fill:#4487b3"
     transform="scale(1.0686472,0.93576252)"
     inkscape:export-xdpi="90.19989"
     inkscape:export-ydpi="90.19989">NORTH SHORE WATER COMMISSION</text>
<g
     id="g3756"
     transform="matrix(1.8392995,0,0,1.9951333,-0.13975826,1.306411)"
     inkscape:export-xdpi="90.19989"
     inkscape:export-ydpi="90.19989"><path
       d="m 20.385,0.721 c 5.545,5.545 14.52,5.544 20.065,0"
       id="path3758"
       inkscape:connector-curvature="0"
       style="fill:#ffffff;stroke:#4487b3;stroke-width:2" /><path
       d="M 0.707,0.718 C 6.253,6.263 15.227,6.262 20.773,0.717"
       id="path3760"
       inkscape:connector-curvature="0"
       style="fill:#ffffff;stroke:#4487b3;stroke-width:2" /><path
       d="m 40.063,0.738 c 5.546,5.545 14.52,5.544 20.065,0"
       id="path3762"
       inkscape:connector-curvature="0"
       style="fill:#ffffff;stroke:#4487b3;stroke-width:2" /><path
       d="M 59.741,0.735 C 65.287,6.28 74.261,6.28 79.807,0.734"
       id="path3764"
       inkscape:connector-curvature="0"
       style="fill:#ffffff;stroke:#4487b3;stroke-width:2" /><path
       d="m 79.419,0.71 c 5.546,5.545 14.52,5.545 20.065,0"
       id="path3766"
       inkscape:connector-curvature="0"
       style="fill:#ffffff;stroke:#4487b3;stroke-width:2" /><path
       d="m 99.097,0.707 c 5.546,5.545 14.52,5.545 20.066,0"
       id="path3768"
       inkscape:connector-curvature="0"
       style="fill:#ffffff;stroke:#4487b3;stroke-width:2" /><path
       d="m 118.775,0.727 c 5.546,5.545 14.52,5.545 20.066,0"
       id="path3770"
       inkscape:connector-curvature="0"
       style="fill:#ffffff;stroke:#4487b3;stroke-width:2" /><path
       d="m 138.453,0.724 c 5.547,5.545 14.52,5.545 20.066,0"
       id="path3772"
       inkscape:connector-curvature="0"
       style="fill:#ffffff;stroke:#4487b3;stroke-width:2" /><path
       d="m 158.131,0.772 c 5.546,5.545 14.519,5.545 20.065,-0.001"
       id="path3774"
       inkscape:connector-curvature="0"
       style="fill:#ffffff;stroke:#4487b3;stroke-width:2" /><path
       d="m 177.809,0.77 c 5.546,5.546 14.521,5.545 20.065,0"
       id="path3776"
       inkscape:connector-curvature="0"
       style="fill:#ffffff;stroke:#4487b3;stroke-width:2" /><path
       d="m 197.486,0.79 c 5.546,5.545 14.519,5.545 20.066,-0.001"
       id="path3778"
       inkscape:connector-curvature="0"
       style="fill:#ffffff;stroke:#4487b3;stroke-width:2" /><path
       d="m 217.165,0.787 c 5.546,5.546 14.521,5.545 20.066,0"
       id="path3780"
       inkscape:connector-curvature="0"
       style="fill:#ffffff;stroke:#4487b3;stroke-width:2" /><path
       d="m 236.843,0.761 c 5.545,5.546 14.521,5.545 20.066,0"
       id="path3782"
       inkscape:connector-curvature="0"
       style="fill:#ffffff;stroke:#4487b3;stroke-width:2" /><path
       d="m 256.521,0.759 c 5.546,5.546 14.52,5.545 20.066,0"
       id="path3784"
       inkscape:connector-curvature="0"
       style="fill:#ffffff;stroke:#4487b3;stroke-width:2" /><path
       d="m 276.198,0.778 c 5.547,5.546 14.521,5.545 20.065,0"
       id="path3786"
       inkscape:connector-curvature="0"
       style="fill:#ffffff;stroke:#4487b3;stroke-width:2" /><path
       d="m 295.876,0.776 c 5.544,5.546 14.519,5.546 20.065,0"
       id="path3788"
       inkscape:connector-curvature="0"
       style="fill:#ffffff;stroke:#4487b3;stroke-width:2" /><path
       d="m 315.555,0.918 c 5.547,5.545 14.52,5.545 20.064,0"
       id="path3790"
       inkscape:connector-curvature="0"
       style="fill:#ffffff;stroke:#4487b3;stroke-width:2" /><path
       d="m 335.232,0.916 c 5.545,5.544 14.52,5.544 20.065,-0.001"
       id="path3792"
       inkscape:connector-curvature="0"
       style="fill:#ffffff;stroke:#4487b3;stroke-width:2" /><path
       d="m 354.91,0.935 c 5.547,5.545 14.52,5.545 20.066,0"
       id="path3794"
       inkscape:connector-curvature="0"
       style="fill:#ffffff;stroke:#4487b3;stroke-width:2" /><path
       d="m 374.588,0.933 c 5.546,5.545 14.52,5.545 20.066,-0.001"
       id="path3796"
       inkscape:connector-curvature="0"
       style="fill:#ffffff;stroke:#4487b3;stroke-width:2" /><path
       d="m 394.266,0.908 c 5.548,5.544 14.522,5.544 20.067,-0.001"
       id="path3798"
       inkscape:connector-curvature="0"
       style="fill:#ffffff;stroke:#4487b3;stroke-width:2" /><path
       d="m 413.944,0.905 c 5.546,5.545 14.519,5.544 20.065,0"
       id="path3800"
       inkscape:connector-curvature="0"
       style="fill:#ffffff;stroke:#4487b3;stroke-width:2" /><path
       d="m 433.622,0.925 c 5.547,5.544 14.521,5.544 20.066,-0.001"
       id="path3802"
       inkscape:connector-curvature="0"
       style="fill:#ffffff;stroke:#4487b3;stroke-width:2" /><path
       d="m 453.3,0.922 c 5.545,5.545 14.52,5.544 20.065,0"
       id="path3804"
       inkscape:connector-curvature="0"
       style="fill:#ffffff;stroke:#4487b3;stroke-width:2" /></g><g
     id="g3806"
     transform="matrix(1.8392995,0,0,1.9951333,-0.1396996,-3.6960364)"
     inkscape:export-xdpi="90.19989"
     inkscape:export-ydpi="90.19989"><path
       d="m 20.385,14.221 c 5.545,5.545 14.52,5.544 20.065,0"
       id="path3808"
       inkscape:connector-curvature="0"
       style="fill:#ffffff;stroke:#4487b3;stroke-width:2" /><path
       d="m 0.707,14.218 c 5.546,5.545 14.52,5.544 20.066,0"
       id="path3810"
       inkscape:connector-curvature="0"
       style="fill:#ffffff;stroke:#4487b3;stroke-width:2" /><path
       d="m 40.063,14.238 c 5.546,5.544 14.52,5.543 20.065,0"
       id="path3812"
       inkscape:connector-curvature="0"
       style="fill:#ffffff;stroke:#4487b3;stroke-width:2" /><path
       d="m 59.741,14.236 c 5.546,5.544 14.521,5.543 20.066,-0.001"
       id="path3814"
       inkscape:connector-curvature="0"
       style="fill:#ffffff;stroke:#4487b3;stroke-width:2" /><path
       d="m 79.419,14.21 c 5.546,5.545 14.52,5.545 20.065,-0.001"
       id="path3816"
       inkscape:connector-curvature="0"
       style="fill:#ffffff;stroke:#4487b3;stroke-width:2" /><path
       d="m 99.097,14.207 c 5.546,5.546 14.52,5.546 20.066,0"
       id="path3818"
       inkscape:connector-curvature="0"
       style="fill:#ffffff;stroke:#4487b3;stroke-width:2" /><path
       d="m 118.775,14.227 c 5.546,5.546 14.52,5.546 20.066,0"
       id="path3820"
       inkscape:connector-curvature="0"
       style="fill:#ffffff;stroke:#4487b3;stroke-width:2" /><path
       d="m 138.453,14.224 c 5.547,5.546 14.52,5.546 20.066,0"
       id="path3822"
       inkscape:connector-curvature="0"
       style="fill:#ffffff;stroke:#4487b3;stroke-width:2" /><path
       d="m 158.131,14.273 c 5.546,5.545 14.519,5.545 20.065,-10e-4"
       id="path3824"
       inkscape:connector-curvature="0"
       style="fill:#ffffff;stroke:#4487b3;stroke-width:2" /><path
       d="m 177.809,14.27 c 5.546,5.547 14.521,5.545 20.065,0"
       id="path3826"
       inkscape:connector-curvature="0"
       style="fill:#ffffff;stroke:#4487b3;stroke-width:2" /><path
       d="m 197.486,14.291 c 5.546,5.544 14.519,5.544 20.066,-0.001"
       id="path3828"
       inkscape:connector-curvature="0"
       style="fill:#ffffff;stroke:#4487b3;stroke-width:2" /><path
       d="m 217.165,14.286 c 5.546,5.547 14.521,5.545 20.066,0"
       id="path3830"
       inkscape:connector-curvature="0"
       style="fill:#ffffff;stroke:#4487b3;stroke-width:2" /><path
       d="m 236.843,14.261 c 5.545,5.546 14.521,5.545 20.066,0"
       id="path3832"
       inkscape:connector-curvature="0"
       style="fill:#ffffff;stroke:#4487b3;stroke-width:2" /><path
       d="m 256.521,14.259 c 5.546,5.546 14.52,5.545 20.066,0"
       id="path3834"
       inkscape:connector-curvature="0"
       style="fill:#ffffff;stroke:#4487b3;stroke-width:2" /><path
       d="m 276.198,14.279 c 5.547,5.546 14.521,5.545 20.065,0"
       id="path3836"
       inkscape:connector-curvature="0"
       style="fill:#ffffff;stroke:#4487b3;stroke-width:2" /><path
       d="m 295.876,14.276 c 5.544,5.546 14.519,5.546 20.065,0"
       id="path3838"
       inkscape:connector-curvature="0"
       style="fill:#ffffff;stroke:#4487b3;stroke-width:2" /><path
       d="m 315.555,14.418 c 5.547,5.544 14.52,5.544 20.064,0"
       id="path3840"
       inkscape:connector-curvature="0"
       style="fill:#ffffff;stroke:#4487b3;stroke-width:2" /><path
       d="m 335.232,14.417 c 5.545,5.543 14.52,5.543 20.065,-10e-4"
       id="path3842"
       inkscape:connector-curvature="0"
       style="fill:#ffffff;stroke:#4487b3;stroke-width:2" /><path
       d="m 354.91,14.435 c 5.547,5.545 14.52,5.545 20.066,0"
       id="path3844"
       inkscape:connector-curvature="0"
       style="fill:#ffffff;stroke:#4487b3;stroke-width:2" /><path
       d="m 374.588,14.433 c 5.546,5.545 14.52,5.545 20.066,-10e-4"
       id="path3846"
       inkscape:connector-curvature="0"
       style="fill:#ffffff;stroke:#4487b3;stroke-width:2" /><path
       d="m 394.266,14.407 c 5.548,5.545 14.522,5.545 20.067,0"
       id="path3848"
       inkscape:connector-curvature="0"
       style="fill:#ffffff;stroke:#4487b3;stroke-width:2" /><path
       d="m 413.944,14.405 c 5.546,5.545 14.519,5.544 20.065,0"
       id="path3850"
       inkscape:connector-curvature="0"
       style="fill:#ffffff;stroke:#4487b3;stroke-width:2" /><path
       d="m 433.622,14.425 c 5.547,5.544 14.521,5.544 20.066,0"
       id="path3852"
       inkscape:connector-curvature="0"
       style="fill:#ffffff;stroke:#4487b3;stroke-width:2" /><path
       d="m 453.3,14.422 c 5.545,5.544 14.52,5.543 20.065,0"
       id="path3854"
       inkscape:connector-curvature="0"
       style="fill:none;stroke:#4487b3;stroke-width:2" /></g><g
     id="g3856"
     transform="matrix(1.8392995,0,0,1.9951333,-0.13975825,-8.6976442)"
     inkscape:export-xdpi="90.19989"
     inkscape:export-ydpi="90.19989"><path
       d="m 20.385,27.721 c 5.545,5.545 14.52,5.545 20.065,0"
       id="path3858"
       inkscape:connector-curvature="0"
       style="fill:#ffffff;stroke:#4487b3;stroke-width:2" /><path
       d="m 0.707,27.718 c 5.546,5.544 14.52,5.544 20.066,0"
       id="path3860"
       inkscape:connector-curvature="0"
       style="fill:#ffffff;stroke:#4487b3;stroke-width:2" /><path
       d="m 40.063,27.738 c 5.546,5.544 14.52,5.544 20.065,0"
       id="path3862"
       inkscape:connector-curvature="0"
       style="fill:#ffffff;stroke:#4487b3;stroke-width:2" /><path
       d="m 59.741,27.736 c 5.546,5.543 14.521,5.543 20.066,-0.001"
       id="path3864"
       inkscape:connector-curvature="0"
       style="fill:#ffffff;stroke:#4487b3;stroke-width:2" /><path
       d="m 79.419,27.71 c 5.546,5.545 14.52,5.545 20.065,-0.001"
       id="path3866"
       inkscape:connector-curvature="0"
       style="fill:#ffffff;stroke:#4487b3;stroke-width:2" /><path
       d="m 99.097,27.707 c 5.546,5.546 14.52,5.545 20.066,0"
       id="path3868"
       inkscape:connector-curvature="0"
       style="fill:#ffffff;stroke:#4487b3;stroke-width:2" /><path
       d="m 118.775,27.727 c 5.546,5.546 14.52,5.546 20.066,0"
       id="path3870"
       inkscape:connector-curvature="0"
       style="fill:#ffffff;stroke:#4487b3;stroke-width:2" /><path
       d="m 138.453,27.724 c 5.547,5.546 14.52,5.545 20.066,0"
       id="path3872"
       inkscape:connector-curvature="0"
       style="fill:#ffffff;stroke:#4487b3;stroke-width:2" /><path
       d="m 158.131,27.773 c 5.546,5.545 14.519,5.545 20.065,-0.001"
       id="path3874"
       inkscape:connector-curvature="0"
       style="fill:#ffffff;stroke:#4487b3;stroke-width:2" /><path
       d="m 177.809,27.77 c 5.546,5.547 14.521,5.546 20.065,0"
       id="path3876"
       inkscape:connector-curvature="0"
       style="fill:#ffffff;stroke:#4487b3;stroke-width:2" /><path
       d="m 197.486,27.791 c 5.546,5.544 14.519,5.544 20.066,-0.001"
       id="path3878"
       inkscape:connector-curvature="0"
       style="fill:#ffffff;stroke:#4487b3;stroke-width:2" /><path
       d="m 217.165,27.786 c 5.546,5.547 14.521,5.546 20.066,0"
       id="path3880"
       inkscape:connector-curvature="0"
       style="fill:#ffffff;stroke:#4487b3;stroke-width:2" /><path
       d="m 236.843,27.761 c 5.545,5.545 14.521,5.545 20.066,0"
       id="path3882"
       inkscape:connector-curvature="0"
       style="fill:#ffffff;stroke:#4487b3;stroke-width:2" /><path
       d="m 256.521,27.759 c 5.546,5.546 14.52,5.546 20.066,0"
       id="path3884"
       inkscape:connector-curvature="0"
       style="fill:#ffffff;stroke:#4487b3;stroke-width:2" /><path
       d="m 276.198,27.779 c 5.547,5.545 14.521,5.545 20.065,0"
       id="path3886"
       inkscape:connector-curvature="0"
       style="fill:#ffffff;stroke:#4487b3;stroke-width:2" /><path
       d="m 295.876,27.776 c 5.544,5.546 14.519,5.546 20.065,0"
       id="path3888"
       inkscape:connector-curvature="0"
       style="fill:#ffffff;stroke:#4487b3;stroke-width:2" /><path
       d="m 315.555,27.918 c 5.547,5.543 14.52,5.543 20.064,0"
       id="path3890"
       inkscape:connector-curvature="0"
       style="fill:#ffffff;stroke:#4487b3;stroke-width:2" /><path
       d="m 335.232,27.917 c 5.545,5.543 14.52,5.543 20.065,-0.001"
       id="path3892"
       inkscape:connector-curvature="0"
       style="fill:#ffffff;stroke:#4487b3;stroke-width:2" /><path
       d="m 354.91,27.935 c 5.547,5.544 14.52,5.544 20.066,0"
       id="path3894"
       inkscape:connector-curvature="0"
       style="fill:#ffffff;stroke:#4487b3;stroke-width:2" /><path
       d="m 374.588,27.933 c 5.546,5.544 14.52,5.544 20.066,-0.001"
       id="path3896"
       inkscape:connector-curvature="0"
       style="fill:#ffffff;stroke:#4487b3;stroke-width:2" /><path
       d="m 394.266,27.907 c 5.548,5.546 14.522,5.545 20.067,0"
       id="path3898"
       inkscape:connector-curvature="0"
       style="fill:#ffffff;stroke:#4487b3;stroke-width:2" /><path
       d="m 413.944,27.905 c 5.546,5.545 14.519,5.544 20.065,0"
       id="path3900"
       inkscape:connector-curvature="0"
       style="fill:#ffffff;stroke:#4487b3;stroke-width:2" /><path
       d="m 433.622,27.925 c 5.547,5.545 14.521,5.544 20.066,0"
       id="path3902"
       inkscape:connector-curvature="0"
       style="fill:#ffffff;stroke:#4487b3;stroke-width:2" /><path
       d="m 453.3,27.922 c 5.545,5.544 14.52,5.543 20.065,0"
       id="path3904"
       inkscape:connector-curvature="0"
       style="fill:#ffffff;stroke:#4487b3;stroke-width:2" /></g></svg>