<?xml version="1.0" encoding="UTF-8" standalone="no"?>
<!-- Generator: Adobe Illustrator 12.0.0, SVG Export Plug-In . SVG Version: 6.00 Build 51448)  -->

<svg
   xmlns:dc="http://purl.org/dc/elements/1.1/"
   xmlns:cc="http://creativecommons.org/ns#"
   xmlns:rdf="http://www.w3.org/1999/02/22-rdf-syntax-ns#"
   xmlns:svg="http://www.w3.org/2000/svg"
   xmlns="http://www.w3.org/2000/svg"
   xmlns:sodipodi="http://sodipodi.sourceforge.net/DTD/sodipodi-0.dtd"
   xmlns:inkscape="http://www.inkscape.org/namespaces/inkscape"
   version="1.1"
   id="Layer_1"
   width="474.072"
   height="64.466"
   viewBox="0 0 474.072 64.466"
   overflow="visible"
   enable-background="new 0 0 474.072 64.466"
   xml:space="preserve"
   inkscape:version="0.91 r13725"
   sodipodi:docname="nswc-logo-bw.svg"><metadata
     id="metadata3910"><rdf:RDF><cc:Work
         rdf:about=""><dc:format>image/svg+xml</dc:format><dc:type
           rdf:resource="http://purl.org/dc/dcmitype/StillImage" /><dc:title></dc:title></cc:Work></rdf:RDF></metadata><defs
     id="defs3908" /><sodipodi:namedview
     pagecolor="#ffffff"
     bordercolor="#666666"
     borderopacity="1"
     objecttolerance="10"
     gridtolerance="10"
     guidetolerance="10"
     inkscape:pageopacity="0"
     inkscape:pageshadow="2"
     inkscape:window-width="1600"
     inkscape:window-height="847"
     id="namedview3906"
     showgrid="false"
     inkscape:zoom="1.9511804"
     inkscape:cx="237.036"
     inkscape:cy="32.233002"
     inkscape:window-x="0"
     inkscape:window-y="0"
     inkscape:window-maximized="1"
     inkscape:current-layer="Layer_1" /><text
     font-size="19"
     letter-spacing="1"
     id="text3754"
     x="49.620102"
     y="59.335899"
     style="font-size:19px;font-family:Rockwell-ExtraBold;letter-spacing:1;fill:#4487b3">NORTH SHORE WATER COMMISSION</text>
<g
     id="g3756"><path
       fill="#FFFFFF"
       stroke="#4487B3"
       stroke-width="2"
       d="M20.385,0.721c5.545,5.545,14.52,5.544,20.065,0"
       id="path3758" /><path
       fill="#FFFFFF"
       stroke="#4487B3"
       stroke-width="2"
       d="M0.707,0.718c5.546,5.545,14.52,5.544,20.066-0.001"
       id="path3760" /><path
       fill="#FFFFFF"
       stroke="#4487B3"
       stroke-width="2"
       d="M40.063,0.738c5.546,5.545,14.52,5.544,20.065,0"
       id="path3762" /><path
       fill="#FFFFFF"
       stroke="#4487B3"
       stroke-width="2"
       d="M59.741,0.735C65.287,6.28,74.261,6.28,79.807,0.734"
       id="path3764" /><path
       fill="#FFFFFF"
       stroke="#4487B3"
       stroke-width="2"
       d="M79.419,0.71c5.546,5.545,14.52,5.545,20.065,0"
       id="path3766" /><path
       fill="#FFFFFF"
       stroke="#4487B3"
       stroke-width="2"
       d="M99.097,0.707c5.546,5.545,14.52,5.545,20.066,0"
       id="path3768" /><path
       fill="#FFFFFF"
       stroke="#4487B3"
       stroke-width="2"
       d="M118.775,0.727c5.546,5.545,14.52,5.545,20.066,0"
       id="path3770" /><path
       fill="#FFFFFF"
       stroke="#4487B3"
       stroke-width="2"
       d="M138.453,0.724c5.547,5.545,14.52,5.545,20.066,0"
       id="path3772" /><path
       fill="#FFFFFF"
       stroke="#4487B3"
       stroke-width="2"
       d="M158.131,0.772c5.546,5.545,14.519,5.545,20.065-0.001"
       id="path3774" /><path
       fill="#FFFFFF"
       stroke="#4487B3"
       stroke-width="2"
       d="M177.809,0.77c5.546,5.546,14.521,5.545,20.065,0"
       id="path3776" /><path
       fill="#FFFFFF"
       stroke="#4487B3"
       stroke-width="2"
       d="M197.486,0.79c5.546,5.545,14.519,5.545,20.066-0.001"
       id="path3778" /><path
       fill="#FFFFFF"
       stroke="#4487B3"
       stroke-width="2"
       d="M217.165,0.787c5.546,5.546,14.521,5.545,20.066,0"
       id="path3780" /><path
       fill="#FFFFFF"
       stroke="#4487B3"
       stroke-width="2"
       d="M236.843,0.761c5.545,5.546,14.521,5.545,20.066,0"
       id="path3782" /><path
       fill="#FFFFFF"
       stroke="#4487B3"
       stroke-width="2"
       d="M256.521,0.759c5.546,5.546,14.52,5.545,20.066,0"
       id="path3784" /><path
       fill="#FFFFFF"
       stroke="#4487B3"
       stroke-width="2"
       d="M276.198,0.778c5.547,5.546,14.521,5.545,20.065,0"
       id="path3786" /><path
       fill="#FFFFFF"
       stroke="#4487B3"
       stroke-width="2"
       d="M295.876,0.776c5.544,5.546,14.519,5.546,20.065,0"
       id="path3788" /><path
       fill="#FFFFFF"
       stroke="#4487B3"
       stroke-width="2"
       d="M315.555,0.918c5.547,5.545,14.52,5.545,20.064,0"
       id="path3790" /><path
       fill="#FFFFFF"
       stroke="#4487B3"
       stroke-width="2"
       d="M335.232,0.916c5.545,5.544,14.52,5.544,20.065-0.001"
       id="path3792" /><path
       fill="#FFFFFF"
       stroke="#4487B3"
       stroke-width="2"
       d="M354.91,0.935c5.547,5.545,14.52,5.545,20.066,0"
       id="path3794" /><path
       fill="#FFFFFF"
       stroke="#4487B3"
       stroke-width="2"
       d="M374.588,0.933c5.546,5.545,14.52,5.545,20.066-0.001"
       id="path3796" /><path
       fill="#FFFFFF"
       stroke="#4487B3"
       stroke-width="2"
       d="M394.266,0.908c5.548,5.544,14.522,5.544,20.067-0.001"
       id="path3798" /><path
       fill="#FFFFFF"
       stroke="#4487B3"
       stroke-width="2"
       d="M413.944,0.905c5.546,5.545,14.519,5.544,20.065,0"
       id="path3800" /><path
       fill="#FFFFFF"
       stroke="#4487B3"
       stroke-width="2"
       d="M433.622,0.925c5.547,5.544,14.521,5.544,20.066-0.001"
       id="path3802" /><path
       fill="#FFFFFF"
       stroke="#4487B3"
       stroke-width="2"
       d="M453.3,0.922c5.545,5.545,14.52,5.544,20.065,0"
       id="path3804" /></g><g
     id="g3806"><path
       fill="#FFFFFF"
       stroke="#4487B3"
       stroke-width="2"
       d="M20.385,14.221c5.545,5.545,14.52,5.544,20.065,0"
       id="path3808" /><path
       fill="#FFFFFF"
       stroke="#4487B3"
       stroke-width="2"
       d="M0.707,14.218c5.546,5.545,14.52,5.544,20.066,0"
       id="path3810" /><path
       fill="#FFFFFF"
       stroke="#4487B3"
       stroke-width="2"
       d="M40.063,14.238c5.546,5.544,14.52,5.543,20.065,0"
       id="path3812" /><path
       fill="#FFFFFF"
       stroke="#4487B3"
       stroke-width="2"
       d="M59.741,14.236c5.546,5.544,14.521,5.543,20.066-0.001"
       id="path3814" /><path
       fill="#FFFFFF"
       stroke="#4487B3"
       stroke-width="2"
       d="M79.419,14.21c5.546,5.545,14.52,5.545,20.065-0.001"
       id="path3816" /><path
       fill="#FFFFFF"
       stroke="#4487B3"
       stroke-width="2"
       d="M99.097,14.207c5.546,5.546,14.52,5.546,20.066,0"
       id="path3818" /><path
       fill="#FFFFFF"
       stroke="#4487B3"
       stroke-width="2"
       d="M118.775,14.227c5.546,5.546,14.52,5.546,20.066,0"
       id="path3820" /><path
       fill="#FFFFFF"
       stroke="#4487B3"
       stroke-width="2"
       d="M138.453,14.224c5.547,5.546,14.52,5.546,20.066,0"
       id="path3822" /><path
       fill="#FFFFFF"
       stroke="#4487B3"
       stroke-width="2"
       d="M158.131,14.273c5.546,5.545,14.519,5.545,20.065-0.001"
       id="path3824" /><path
       fill="#FFFFFF"
       stroke="#4487B3"
       stroke-width="2"
       d="M177.809,14.27c5.546,5.547,14.521,5.545,20.065,0"
       id="path3826" /><path
       fill="#FFFFFF"
       stroke="#4487B3"
       stroke-width="2"
       d="M197.486,14.291c5.546,5.544,14.519,5.544,20.066-0.001"
       id="path3828" /><path
       fill="#FFFFFF"
       stroke="#4487B3"
       stroke-width="2"
       d="M217.165,14.286c5.546,5.547,14.521,5.545,20.066,0"
       id="path3830" /><path
       fill="#FFFFFF"
       stroke="#4487B3"
       stroke-width="2"
       d="M236.843,14.261c5.545,5.546,14.521,5.545,20.066,0"
       id="path3832" /><path
       fill="#FFFFFF"
       stroke="#4487B3"
       stroke-width="2"
       d="M256.521,14.259c5.546,5.546,14.52,5.545,20.066,0"
       id="path3834" /><path
       fill="#FFFFFF"
       stroke="#4487B3"
       stroke-width="2"
       d="M276.198,14.279c5.547,5.546,14.521,5.545,20.065,0"
       id="path3836" /><path
       fill="#FFFFFF"
       stroke="#4487B3"
       stroke-width="2"
       d="M295.876,14.276c5.544,5.546,14.519,5.546,20.065,0"
       id="path3838" /><path
       fill="#FFFFFF"
       stroke="#4487B3"
       stroke-width="2"
       d="M315.555,14.418c5.547,5.544,14.52,5.544,20.064,0"
       id="path3840" /><path
       fill="#FFFFFF"
       stroke="#4487B3"
       stroke-width="2"
       d="M335.232,14.417c5.545,5.543,14.52,5.543,20.065-0.001"
       id="path3842" /><path
       fill="#FFFFFF"
       stroke="#4487B3"
       stroke-width="2"
       d="M354.91,14.435c5.547,5.545,14.52,5.545,20.066,0"
       id="path3844" /><path
       fill="#FFFFFF"
       stroke="#4487B3"
       stroke-width="2"
       d="M374.588,14.433c5.546,5.545,14.52,5.545,20.066-0.001"
       id="path3846" /><path
       fill="#FFFFFF"
       stroke="#4487B3"
       stroke-width="2"
       d="M394.266,14.407c5.548,5.545,14.522,5.545,20.067,0"
       id="path3848" /><path
       fill="#FFFFFF"
       stroke="#4487B3"
       stroke-width="2"
       d="M413.944,14.405c5.546,5.545,14.519,5.544,20.065,0"
       id="path3850" /><path
       fill="#FFFFFF"
       stroke="#4487B3"
       stroke-width="2"
       d="M433.622,14.425c5.547,5.544,14.521,5.544,20.066,0"
       id="path3852" /><path
       fill="none"
       stroke="#4487B3"
       stroke-width="2"
       d="M453.3,14.422c5.545,5.544,14.52,5.543,20.065,0"
       id="path3854" /></g><g
     id="g3856"><path
       fill="#FFFFFF"
       stroke="#4487B3"
       stroke-width="2"
       d="M20.385,27.721c5.545,5.545,14.52,5.545,20.065,0"
       id="path3858" /><path
       fill="#FFFFFF"
       stroke="#4487B3"
       stroke-width="2"
       d="M0.707,27.718c5.546,5.544,14.52,5.544,20.066,0"
       id="path3860" /><path
       fill="#FFFFFF"
       stroke="#4487B3"
       stroke-width="2"
       d="M40.063,27.738c5.546,5.544,14.52,5.544,20.065,0"
       id="path3862" /><path
       fill="#FFFFFF"
       stroke="#4487B3"
       stroke-width="2"
       d="M59.741,27.736c5.546,5.543,14.521,5.543,20.066-0.001"
       id="path3864" /><path
       fill="#FFFFFF"
       stroke="#4487B3"
       stroke-width="2"
       d="M79.419,27.71c5.546,5.545,14.52,5.545,20.065-0.001"
       id="path3866" /><path
       fill="#FFFFFF"
       stroke="#4487B3"
       stroke-width="2"
       d="M99.097,27.707c5.546,5.546,14.52,5.545,20.066,0"
       id="path3868" /><path
       fill="#FFFFFF"
       stroke="#4487B3"
       stroke-width="2"
       d="M118.775,27.727c5.546,5.546,14.52,5.546,20.066,0"
       id="path3870" /><path
       fill="#FFFFFF"
       stroke="#4487B3"
       stroke-width="2"
       d="M138.453,27.724c5.547,5.546,14.52,5.545,20.066,0"
       id="path3872" /><path
       fill="#FFFFFF"
       stroke="#4487B3"
       stroke-width="2"
       d="M158.131,27.773c5.546,5.545,14.519,5.545,20.065-0.001"
       id="path3874" /><path
       fill="#FFFFFF"
       stroke="#4487B3"
       stroke-width="2"
       d="M177.809,27.77c5.546,5.547,14.521,5.546,20.065,0"
       id="path3876" /><path
       fill="#FFFFFF"
       stroke="#4487B3"
       stroke-width="2"
       d="M197.486,27.791c5.546,5.544,14.519,5.544,20.066-0.001"
       id="path3878" /><path
       fill="#FFFFFF"
       stroke="#4487B3"
       stroke-width="2"
       d="M217.165,27.786c5.546,5.547,14.521,5.546,20.066,0"
       id="path3880" /><path
       fill="#FFFFFF"
       stroke="#4487B3"
       stroke-width="2"
       d="M236.843,27.761c5.545,5.545,14.521,5.545,20.066,0"
       id="path3882" /><path
       fill="#FFFFFF"
       stroke="#4487B3"
       stroke-width="2"
       d="M256.521,27.759c5.546,5.546,14.52,5.546,20.066,0"
       id="path3884" /><path
       fill="#FFFFFF"
       stroke="#4487B3"
       stroke-width="2"
       d="M276.198,27.779c5.547,5.545,14.521,5.545,20.065,0"
       id="path3886" /><path
       fill="#FFFFFF"
       stroke="#4487B3"
       stroke-width="2"
       d="M295.876,27.776c5.544,5.546,14.519,5.546,20.065,0"
       id="path3888" /><path
       fill="#FFFFFF"
       stroke="#4487B3"
       stroke-width="2"
       d="M315.555,27.918c5.547,5.543,14.52,5.543,20.064,0"
       id="path3890" /><path
       fill="#FFFFFF"
       stroke="#4487B3"
       stroke-width="2"
       d="M335.232,27.917c5.545,5.543,14.52,5.543,20.065-0.001"
       id="path3892" /><path
       fill="#FFFFFF"
       stroke="#4487B3"
       stroke-width="2"
       d="M354.91,27.935c5.547,5.544,14.52,5.544,20.066,0"
       id="path3894" /><path
       fill="#FFFFFF"
       stroke="#4487B3"
       stroke-width="2"
       d="M374.588,27.933c5.546,5.544,14.52,5.544,20.066-0.001"
       id="path3896" /><path
       fill="#FFFFFF"
       stroke="#4487B3"
       stroke-width="2"
       d="M394.266,27.907c5.548,5.546,14.522,5.545,20.067,0"
       id="path3898" /><path
       fill="#FFFFFF"
       stroke="#4487B3"
       stroke-width="2"
       d="M413.944,27.905c5.546,5.545,14.519,5.544,20.065,0"
       id="path3900" /><path
       fill="#FFFFFF"
       stroke="#4487B3"
       stroke-width="2"
       d="M433.622,27.925c5.547,5.545,14.521,5.544,20.066,0"
       id="path3902" /><path
       fill="#FFFFFF"
       stroke="#4487B3"
       stroke-width="2"
       d="M453.3,27.922c5.545,5.544,14.52,5.543,20.065,0"
       id="path3904" /></g></svg>