<?xml version="1.0" encoding="UTF-8" standalone="no"?>
<!-- Generator: Adobe Illustrator 12.0.0, SVG Export Plug-In . SVG Version: 6.00 Build 51448)  -->

<svg
   xmlns:dc="http://purl.org/dc/elements/1.1/"
   xmlns:cc="http://creativecommons.org/ns#"
   xmlns:rdf="http://www.w3.org/1999/02/22-rdf-syntax-ns#"
   xmlns:svg="http://www.w3.org/2000/svg"
   xmlns="http://www.w3.org/2000/svg"
   xmlns:sodipodi="http://sodipodi.sourceforge.net/DTD/sodipodi-0.dtd"
   xmlns:inkscape="http://www.inkscape.org/namespaces/inkscape"
   version="1.1"
   id="Layer_1"
   width="800"
   height="64.466003"
   viewBox="0 0 800.00002 64.466"
   overflow="visible"
   enable-background="new 0 0 474.072 64.466"
   xml:space="preserve"
   inkscape:version="0.91 r13725"
   sodipodi:docname="nswc-logo.svg"
   style="overflow:visible"><metadata
     id="metadata159"><rdf:RDF><cc:Work
         rdf:about=""><dc:format>image/svg+xml</dc:format><dc:type
           rdf:resource="http://purl.org/dc/dcmitype/StillImage" /><dc:title></dc:title></cc:Work></rdf:RDF></metadata><defs
     id="defs157" /><sodipodi:namedview
     pagecolor="#ffffff"
     bordercolor="#666666"
     borderopacity="1"
     objecttolerance="10"
     gridtolerance="10"
     guidetolerance="10"
     inkscape:pageopacity="1"
     inkscape:pageshadow="2"
     inkscape:window-width="1600"
     inkscape:window-height="847"
     id="namedview155"
     showgrid="false"
     inkscape:zoom="1.1221924"
     inkscape:cx="398.67094"
     inkscape:cy="-4.9143704"
     inkscape:window-x="0"
     inkscape:window-y="0"
     inkscape:window-maximized="1"
     inkscape:current-layer="Layer_1" /><text
     font-size="19"
     letter-spacing="1"
     id="text3"
     style="font-size:19px;font-family:Rockwell-ExtraBold;letter-spacing:1;fill:#4487b3"
     x="215.6201"
     y="61.33588">NORTH SHORE WATER COMMISSION</text>
<g
     id="g5"
     transform="translate(166,1.9999829)"><path
       d="m 20.385,0.721 c 5.545,5.545 14.52,5.544 20.065,0"
       id="path7"
       inkscape:connector-curvature="0"
       style="fill:#ffffff;stroke:#4487b3;stroke-width:2" /><path
       d="M 0.707,0.718 C 6.253,6.263 15.227,6.262 20.773,0.717"
       id="path9"
       inkscape:connector-curvature="0"
       style="fill:#ffffff;stroke:#4487b3;stroke-width:2" /><path
       d="m 40.063,0.738 c 5.546,5.545 14.52,5.544 20.065,0"
       id="path11"
       inkscape:connector-curvature="0"
       style="fill:#ffffff;stroke:#4487b3;stroke-width:2" /><path
       d="M 59.741,0.735 C 65.287,6.28 74.261,6.28 79.807,0.734"
       id="path13"
       inkscape:connector-curvature="0"
       style="fill:#ffffff;stroke:#4487b3;stroke-width:2" /><path
       d="m 79.419,0.71 c 5.546,5.545 14.52,5.545 20.065,0"
       id="path15"
       inkscape:connector-curvature="0"
       style="fill:#ffffff;stroke:#4487b3;stroke-width:2" /><path
       d="m 99.097,0.707 c 5.546,5.545 14.52,5.545 20.066,0"
       id="path17"
       inkscape:connector-curvature="0"
       style="fill:#ffffff;stroke:#4487b3;stroke-width:2" /><path
       d="m 118.775,0.727 c 5.546,5.545 14.52,5.545 20.066,0"
       id="path19"
       inkscape:connector-curvature="0"
       style="fill:#ffffff;stroke:#4487b3;stroke-width:2" /><path
       d="m 138.453,0.724 c 5.547,5.545 14.52,5.545 20.066,0"
       id="path21"
       inkscape:connector-curvature="0"
       style="fill:#ffffff;stroke:#4487b3;stroke-width:2" /><path
       d="m 158.131,0.772 c 5.546,5.545 14.519,5.545 20.065,-0.001"
       id="path23"
       inkscape:connector-curvature="0"
       style="fill:#ffffff;stroke:#4487b3;stroke-width:2" /><path
       d="m 177.809,0.77 c 5.546,5.546 14.521,5.545 20.065,0"
       id="path25"
       inkscape:connector-curvature="0"
       style="fill:#ffffff;stroke:#4487b3;stroke-width:2" /><path
       d="m 197.486,0.79 c 5.546,5.545 14.519,5.545 20.066,-0.001"
       id="path27"
       inkscape:connector-curvature="0"
       style="fill:#ffffff;stroke:#4487b3;stroke-width:2" /><path
       d="m 217.165,0.787 c 5.546,5.546 14.521,5.545 20.066,0"
       id="path29"
       inkscape:connector-curvature="0"
       style="fill:#ffffff;stroke:#4487b3;stroke-width:2" /><path
       d="m 236.843,0.761 c 5.545,5.546 14.521,5.545 20.066,0"
       id="path31"
       inkscape:connector-curvature="0"
       style="fill:#ffffff;stroke:#4487b3;stroke-width:2" /><path
       d="m 256.521,0.759 c 5.546,5.546 14.52,5.545 20.066,0"
       id="path33"
       inkscape:connector-curvature="0"
       style="fill:#ffffff;stroke:#4487b3;stroke-width:2" /><path
       d="m 276.198,0.778 c 5.547,5.546 14.521,5.545 20.065,0"
       id="path35"
       inkscape:connector-curvature="0"
       style="fill:#ffffff;stroke:#4487b3;stroke-width:2" /><path
       d="m 295.876,0.776 c 5.544,5.546 14.519,5.546 20.065,0"
       id="path37"
       inkscape:connector-curvature="0"
       style="fill:#ffffff;stroke:#4487b3;stroke-width:2" /><path
       d="m 315.555,0.918 c 5.547,5.545 14.52,5.545 20.064,0"
       id="path39"
       inkscape:connector-curvature="0"
       style="fill:#ffffff;stroke:#4487b3;stroke-width:2" /><path
       d="m 335.232,0.916 c 5.545,5.544 14.52,5.544 20.065,-0.001"
       id="path41"
       inkscape:connector-curvature="0"
       style="fill:#ffffff;stroke:#4487b3;stroke-width:2" /><path
       d="m 354.91,0.935 c 5.547,5.545 14.52,5.545 20.066,0"
       id="path43"
       inkscape:connector-curvature="0"
       style="fill:#ffffff;stroke:#4487b3;stroke-width:2" /><path
       d="m 374.588,0.933 c 5.546,5.545 14.52,5.545 20.066,-0.001"
       id="path45"
       inkscape:connector-curvature="0"
       style="fill:#ffffff;stroke:#4487b3;stroke-width:2" /><path
       d="m 394.266,0.908 c 5.548,5.544 14.522,5.544 20.067,-0.001"
       id="path47"
       inkscape:connector-curvature="0"
       style="fill:#ffffff;stroke:#4487b3;stroke-width:2" /><path
       d="m 413.944,0.905 c 5.546,5.545 14.519,5.544 20.065,0"
       id="path49"
       inkscape:connector-curvature="0"
       style="fill:#ffffff;stroke:#4487b3;stroke-width:2" /><path
       d="m 433.622,0.925 c 5.547,5.544 14.521,5.544 20.066,-0.001"
       id="path51"
       inkscape:connector-curvature="0"
       style="fill:#ffffff;stroke:#4487b3;stroke-width:2" /><path
       d="m 453.3,0.922 c 5.545,5.545 14.52,5.544 20.065,0"
       id="path53"
       inkscape:connector-curvature="0"
       style="fill:#ffffff;stroke:#4487b3;stroke-width:2" /></g><g
     id="g55"
     transform="translate(166,1.9999829)"><path
       d="m 20.385,14.221 c 5.545,5.545 14.52,5.544 20.065,0"
       id="path57"
       inkscape:connector-curvature="0"
       style="fill:#ffffff;stroke:#4487b3;stroke-width:2" /><path
       d="m 0.707,14.218 c 5.546,5.545 14.52,5.544 20.066,0"
       id="path59"
       inkscape:connector-curvature="0"
       style="fill:#ffffff;stroke:#4487b3;stroke-width:2" /><path
       d="m 40.063,14.238 c 5.546,5.544 14.52,5.543 20.065,0"
       id="path61"
       inkscape:connector-curvature="0"
       style="fill:#ffffff;stroke:#4487b3;stroke-width:2" /><path
       d="m 59.741,14.236 c 5.546,5.544 14.521,5.543 20.066,-0.001"
       id="path63"
       inkscape:connector-curvature="0"
       style="fill:#ffffff;stroke:#4487b3;stroke-width:2" /><path
       d="m 79.419,14.21 c 5.546,5.545 14.52,5.545 20.065,-0.001"
       id="path65"
       inkscape:connector-curvature="0"
       style="fill:#ffffff;stroke:#4487b3;stroke-width:2" /><path
       d="m 99.097,14.207 c 5.546,5.546 14.52,5.546 20.066,0"
       id="path67"
       inkscape:connector-curvature="0"
       style="fill:#ffffff;stroke:#4487b3;stroke-width:2" /><path
       d="m 118.775,14.227 c 5.546,5.546 14.52,5.546 20.066,0"
       id="path69"
       inkscape:connector-curvature="0"
       style="fill:#ffffff;stroke:#4487b3;stroke-width:2" /><path
       d="m 138.453,14.224 c 5.547,5.546 14.52,5.546 20.066,0"
       id="path71"
       inkscape:connector-curvature="0"
       style="fill:#ffffff;stroke:#4487b3;stroke-width:2" /><path
       d="m 158.131,14.273 c 5.546,5.545 14.519,5.545 20.065,-10e-4"
       id="path73"
       inkscape:connector-curvature="0"
       style="fill:#ffffff;stroke:#4487b3;stroke-width:2" /><path
       d="m 177.809,14.27 c 5.546,5.547 14.521,5.545 20.065,0"
       id="path75"
       inkscape:connector-curvature="0"
       style="fill:#ffffff;stroke:#4487b3;stroke-width:2" /><path
       d="m 197.486,14.291 c 5.546,5.544 14.519,5.544 20.066,-0.001"
       id="path77"
       inkscape:connector-curvature="0"
       style="fill:#ffffff;stroke:#4487b3;stroke-width:2" /><path
       d="m 217.165,14.286 c 5.546,5.547 14.521,5.545 20.066,0"
       id="path79"
       inkscape:connector-curvature="0"
       style="fill:#ffffff;stroke:#4487b3;stroke-width:2" /><path
       d="m 236.843,14.261 c 5.545,5.546 14.521,5.545 20.066,0"
       id="path81"
       inkscape:connector-curvature="0"
       style="fill:#ffffff;stroke:#4487b3;stroke-width:2" /><path
       d="m 256.521,14.259 c 5.546,5.546 14.52,5.545 20.066,0"
       id="path83"
       inkscape:connector-curvature="0"
       style="fill:#ffffff;stroke:#4487b3;stroke-width:2" /><path
       d="m 276.198,14.279 c 5.547,5.546 14.521,5.545 20.065,0"
       id="path85"
       inkscape:connector-curvature="0"
       style="fill:#ffffff;stroke:#4487b3;stroke-width:2" /><path
       d="m 295.876,14.276 c 5.544,5.546 14.519,5.546 20.065,0"
       id="path87"
       inkscape:connector-curvature="0"
       style="fill:#ffffff;stroke:#4487b3;stroke-width:2" /><path
       d="m 315.555,14.418 c 5.547,5.544 14.52,5.544 20.064,0"
       id="path89"
       inkscape:connector-curvature="0"
       style="fill:#ffffff;stroke:#4487b3;stroke-width:2" /><path
       d="m 335.232,14.417 c 5.545,5.543 14.52,5.543 20.065,-10e-4"
       id="path91"
       inkscape:connector-curvature="0"
       style="fill:#ffffff;stroke:#4487b3;stroke-width:2" /><path
       d="m 354.91,14.435 c 5.547,5.545 14.52,5.545 20.066,0"
       id="path93"
       inkscape:connector-curvature="0"
       style="fill:#ffffff;stroke:#4487b3;stroke-width:2" /><path
       d="m 374.588,14.433 c 5.546,5.545 14.52,5.545 20.066,-10e-4"
       id="path95"
       inkscape:connector-curvature="0"
       style="fill:#ffffff;stroke:#4487b3;stroke-width:2" /><path
       d="m 394.266,14.407 c 5.548,5.545 14.522,5.545 20.067,0"
       id="path97"
       inkscape:connector-curvature="0"
       style="fill:#ffffff;stroke:#4487b3;stroke-width:2" /><path
       d="m 413.944,14.405 c 5.546,5.545 14.519,5.544 20.065,0"
       id="path99"
       inkscape:connector-curvature="0"
       style="fill:#ffffff;stroke:#4487b3;stroke-width:2" /><path
       d="m 433.622,14.425 c 5.547,5.544 14.521,5.544 20.066,0"
       id="path101"
       inkscape:connector-curvature="0"
       style="fill:#ffffff;stroke:#4487b3;stroke-width:2" /><path
       d="m 453.3,14.422 c 5.545,5.544 14.52,5.543 20.065,0"
       id="path103"
       inkscape:connector-curvature="0"
       style="fill:none;stroke:#4487b3;stroke-width:2" /></g><g
     id="g105"
     transform="translate(166,1.9999829)"><path
       d="m 20.385,27.721 c 5.545,5.545 14.52,5.545 20.065,0"
       id="path107"
       inkscape:connector-curvature="0"
       style="fill:#ffffff;stroke:#4487b3;stroke-width:2" /><path
       d="m 0.707,27.718 c 5.546,5.544 14.52,5.544 20.066,0"
       id="path109"
       inkscape:connector-curvature="0"
       style="fill:#ffffff;stroke:#4487b3;stroke-width:2" /><path
       d="m 40.063,27.738 c 5.546,5.544 14.52,5.544 20.065,0"
       id="path111"
       inkscape:connector-curvature="0"
       style="fill:#ffffff;stroke:#4487b3;stroke-width:2" /><path
       d="m 59.741,27.736 c 5.546,5.543 14.521,5.543 20.066,-0.001"
       id="path113"
       inkscape:connector-curvature="0"
       style="fill:#ffffff;stroke:#4487b3;stroke-width:2" /><path
       d="m 79.419,27.71 c 5.546,5.545 14.52,5.545 20.065,-0.001"
       id="path115"
       inkscape:connector-curvature="0"
       style="fill:#ffffff;stroke:#4487b3;stroke-width:2" /><path
       d="m 99.097,27.707 c 5.546,5.546 14.52,5.545 20.066,0"
       id="path117"
       inkscape:connector-curvature="0"
       style="fill:#ffffff;stroke:#4487b3;stroke-width:2" /><path
       d="m 118.775,27.727 c 5.546,5.546 14.52,5.546 20.066,0"
       id="path119"
       inkscape:connector-curvature="0"
       style="fill:#ffffff;stroke:#4487b3;stroke-width:2" /><path
       d="m 138.453,27.724 c 5.547,5.546 14.52,5.545 20.066,0"
       id="path121"
       inkscape:connector-curvature="0"
       style="fill:#ffffff;stroke:#4487b3;stroke-width:2" /><path
       d="m 158.131,27.773 c 5.546,5.545 14.519,5.545 20.065,-0.001"
       id="path123"
       inkscape:connector-curvature="0"
       style="fill:#ffffff;stroke:#4487b3;stroke-width:2" /><path
       d="m 177.809,27.77 c 5.546,5.547 14.521,5.546 20.065,0"
       id="path125"
       inkscape:connector-curvature="0"
       style="fill:#ffffff;stroke:#4487b3;stroke-width:2" /><path
       d="m 197.486,27.791 c 5.546,5.544 14.519,5.544 20.066,-0.001"
       id="path127"
       inkscape:connector-curvature="0"
       style="fill:#ffffff;stroke:#4487b3;stroke-width:2" /><path
       d="m 217.165,27.786 c 5.546,5.547 14.521,5.546 20.066,0"
       id="path129"
       inkscape:connector-curvature="0"
       style="fill:#ffffff;stroke:#4487b3;stroke-width:2" /><path
       d="m 236.843,27.761 c 5.545,5.545 14.521,5.545 20.066,0"
       id="path131"
       inkscape:connector-curvature="0"
       style="fill:#ffffff;stroke:#4487b3;stroke-width:2" /><path
       d="m 256.521,27.759 c 5.546,5.546 14.52,5.546 20.066,0"
       id="path133"
       inkscape:connector-curvature="0"
       style="fill:#ffffff;stroke:#4487b3;stroke-width:2" /><path
       d="m 276.198,27.779 c 5.547,5.545 14.521,5.545 20.065,0"
       id="path135"
       inkscape:connector-curvature="0"
       style="fill:#ffffff;stroke:#4487b3;stroke-width:2" /><path
       d="m 295.876,27.776 c 5.544,5.546 14.519,5.546 20.065,0"
       id="path137"
       inkscape:connector-curvature="0"
       style="fill:#ffffff;stroke:#4487b3;stroke-width:2" /><path
       d="m 315.555,27.918 c 5.547,5.543 14.52,5.543 20.064,0"
       id="path139"
       inkscape:connector-curvature="0"
       style="fill:#ffffff;stroke:#4487b3;stroke-width:2" /><path
       d="m 335.232,27.917 c 5.545,5.543 14.52,5.543 20.065,-0.001"
       id="path141"
       inkscape:connector-curvature="0"
       style="fill:#ffffff;stroke:#4487b3;stroke-width:2" /><path
       d="m 354.91,27.935 c 5.547,5.544 14.52,5.544 20.066,0"
       id="path143"
       inkscape:connector-curvature="0"
       style="fill:#ffffff;stroke:#4487b3;stroke-width:2" /><path
       d="m 374.588,27.933 c 5.546,5.544 14.52,5.544 20.066,-0.001"
       id="path145"
       inkscape:connector-curvature="0"
       style="fill:#ffffff;stroke:#4487b3;stroke-width:2" /><path
       d="m 394.266,27.907 c 5.548,5.546 14.522,5.545 20.067,0"
       id="path147"
       inkscape:connector-curvature="0"
       style="fill:#ffffff;stroke:#4487b3;stroke-width:2" /><path
       d="m 413.944,27.905 c 5.546,5.545 14.519,5.544 20.065,0"
       id="path149"
       inkscape:connector-curvature="0"
       style="fill:#ffffff;stroke:#4487b3;stroke-width:2" /><path
       d="m 433.622,27.925 c 5.547,5.545 14.521,5.544 20.066,0"
       id="path151"
       inkscape:connector-curvature="0"
       style="fill:#ffffff;stroke:#4487b3;stroke-width:2" /><path
       d="m 453.3,27.922 c 5.545,5.544 14.52,5.543 20.065,0"
       id="path153"
       inkscape:connector-curvature="0"
       style="fill:#ffffff;stroke:#4487b3;stroke-width:2" /></g></svg>